<svg id="visual" viewBox="0 0 1500 450" width="1500" height="450" xmlns="http://www.w3.org/2000/svg" xmlns:xlink="http://www.w3.org/1999/xlink" version="1.1"><path d="M0 334L35.7 333.2C71.3 332.3 142.7 330.7 214.2 339.8C285.7 349 357.3 369 428.8 380.5C500.3 392 571.7 395 643 386.2C714.3 377.3 785.7 356.7 857 357.3C928.3 358 999.7 380 1071.2 386.8C1142.7 393.7 1214.3 385.3 1285.8 378.2C1357.3 371 1428.7 365 1464.3 362L1500 359L1500 451L1464.3 451C1428.7 451 1357.3 451 1285.8 451C1214.3 451 1142.7 451 1071.2 451C999.7 451 928.3 451 857 451C785.7 451 714.3 451 643 451C571.7 451 500.3 451 428.8 451C357.3 451 285.7 451 214.2 451C142.7 451 71.3 451 35.7 451L0 451Z" fill="#004dff" stroke-linecap="round" stroke-linejoin="miter"></path></svg>